<?xml version="1.0" standalone="no"?>
<!DOCTYPE svg PUBLIC "-//W3C//DTD SVG 20010904//EN"
 "http://www.w3.org/TR/2001/REC-SVG-20010904/DTD/svg10.dtd">
<svg version="1.0" xmlns="http://www.w3.org/2000/svg"
 width="3725.000000pt" height="3009.000000pt" viewBox="0 0 3725.000000 3009.000000"
 preserveAspectRatio="xMidYMid meet">

<g transform="translate(0.000000,3009.000000) scale(0.100000,-0.100000)"
fill="#000000" stroke="none">
<path d="M6661 24039 c-106 -21 -175 -79 -208 -174 -17 -47 -18 -170 -18
-2100 l0 -2050 24 -52 c31 -69 86 -118 158 -140 52 -16 103 -18 478 -18 377 0
427 2 487 18 83 23 137 67 169 139 l24 53 3 638 3 637 256 -2 257 -3 282 -690
c297 -730 306 -748 381 -775 51 -18 1044 -27 1113 -10 81 20 129 91 115 168
-4 20 -149 345 -322 722 -174 377 -326 708 -339 737 l-23 52 73 40 c333 182
544 486 628 903 20 100 23 142 23 373 0 274 -5 327 -52 510 -134 522 -485 839
-1073 968 -276 61 -273 61 -1380 63 -559 1 -1035 -2 -1059 -7z m1812 -984
c197 -35 325 -147 382 -335 25 -82 31 -277 11 -368 -41 -196 -136 -303 -323
-369 l-78 -28 -342 -3 -343 -3 0 560 0 561 308 0 c216 -1 330 -5 385 -15z"/>
<path d="M11345 24036 c-132 -33 -193 -104 -215 -252 -13 -91 -13 -3933 0
-4024 12 -82 55 -167 100 -197 18 -13 59 -31 89 -41 52 -16 163 -17 1536 -17
1389 0 1484 1 1537 18 72 22 120 68 144 139 17 47 19 86 19 328 0 241 -2 281
-18 328 -26 72 -58 107 -125 134 l-57 23 -937 3 -938 3 0 404 0 404 638 3
c591 3 641 5 687 22 74 27 101 50 132 114 l28 57 3 267 c3 227 1 277 -13 325
-23 78 -57 120 -124 152 l-56 26 -647 3 -648 3 0 404 0 405 915 0 c638 0 930
3 967 11 175 37 208 113 208 479 0 366 -33 442 -208 479 -80 17 -2948 14
-3017 -3z"/>
<path d="M17170 24030 c-59 -20 -116 -73 -150 -140 -26 -50 -1719 -4104 -1741
-4169 -23 -65 -24 -122 -4 -160 28 -56 29 -56 650 -56 613 0 614 0 676 52 43
36 49 52 179 418 l117 330 700 3 699 2 125 -342 c73 -202 135 -358 152 -381
17 -23 48 -48 75 -60 46 -22 58 -22 582 -25 294 -2 560 0 589 3 44 6 62 14 88
40 29 29 33 40 33 84 0 29 -10 77 -24 113 -58 152 -1711 4099 -1738 4151 -17
31 -48 73 -69 92 -68 61 -98 65 -513 65 -337 -1 -376 -2 -426 -20z m630 -2245
c106 -297 195 -546 197 -552 4 -10 -79 -13 -396 -13 -221 0 -401 3 -401 8 -1
19 396 1110 401 1104 3 -4 93 -250 199 -547z"/>
<path d="M21055 24036 c-27 -7 -64 -20 -81 -29 -48 -25 -101 -91 -121 -149
-17 -50 -18 -154 -21 -2028 -2 -1320 1 -2002 8 -2055 12 -97 51 -180 100 -212
18 -13 59 -31 89 -41 51 -16 132 -17 966 -17 990 1 1053 3 1345 60 553 108
968 348 1251 724 197 261 331 632 386 1062 24 193 24 671 -1 864 -64 505 -216
887 -463 1167 -285 322 -716 537 -1248 622 -236 38 -264 39 -1215 42 -738 2
-956 0 -995 -10z m1855 -981 c124 -19 189 -38 280 -86 279 -145 405 -396 451
-899 15 -165 6 -599 -16 -743 -66 -442 -223 -677 -525 -788 -141 -51 -218 -59
-581 -59 l-329 0 0 1295 0 1295 313 0 c222 0 339 -4 407 -15z"/>
<path d="M25334 24036 c-17 -8 -41 -27 -53 -42 -19 -25 -22 -38 -19 -89 4 -60
14 -79 811 -1446 l806 -1386 3 -679 3 -679 23 -50 c43 -94 108 -136 239 -155
87 -12 724 -12 823 0 108 14 176 51 216 117 17 29 36 78 43 109 7 40 11 256
11 696 l0 639 797 1366 c438 751 802 1382 809 1402 30 83 8 167 -51 196 -31
14 -99 15 -617 13 l-583 -3 -39 -24 c-21 -13 -55 -50 -75 -81 -20 -31 -234
-407 -476 -837 -242 -430 -442 -780 -445 -778 -3 2 -210 364 -460 805 -275
484 -472 821 -497 850 -32 35 -54 50 -87 59 -70 17 -1141 15 -1182 -3z"/>
<path d="M30370 20323 c-90 -15 -145 -55 -186 -136 -32 -63 -394 -1299 -394
-1345 0 -54 30 -97 82 -116 39 -15 85 -17 379 -14 324 3 335 4 376 25 23 13
53 38 67 56 29 38 516 1176 547 1279 30 98 23 171 -18 209 -50 44 -102 49
-481 48 -191 -1 -358 -4 -372 -6z"/>
<path d="M8010 18023 c-483 -30 -908 -189 -1171 -440 -110 -105 -171 -187
-235 -318 -89 -183 -124 -350 -124 -591 0 -569 256 -894 985 -1250 105 -51
300 -136 435 -189 407 -161 630 -277 699 -364 60 -76 76 -125 76 -241 0 -88
-4 -113 -23 -155 -48 -105 -158 -179 -318 -212 -111 -23 -419 -23 -577 1 -275
40 -549 128 -806 258 -85 43 -167 78 -182 78 -15 0 -41 -11 -57 -25 -26 -22
-348 -520 -395 -612 -25 -48 -22 -111 8 -155 14 -21 65 -63 117 -98 322 -212
811 -354 1418 -411 178 -17 633 -17 780 0 474 53 812 193 1055 436 232 231
335 499 335 867 0 458 -165 785 -520 1027 -174 119 -476 268 -780 386 -403
156 -515 202 -604 248 -123 64 -223 154 -263 235 -26 52 -28 67 -28 167 0 98
3 116 26 166 72 153 221 217 524 226 327 10 595 -49 845 -185 161 -87 212
-112 231 -112 41 0 101 78 278 360 181 287 201 329 187 385 -17 67 -181 194
-366 282 -200 96 -489 175 -760 208 -245 29 -574 41 -790 28z"/>
<path d="M11163 17919 c-113 -22 -189 -87 -220 -186 -17 -55 -18 -165 -18
-2083 0 -1985 0 -2026 20 -2085 25 -77 83 -137 157 -162 50 -17 134 -18 1508
-21 919 -2 1478 1 1519 7 120 19 184 68 214 165 8 29 12 125 12 316 0 310 -7
351 -71 415 -71 72 -32 69 -1071 73 l-933 3 0 404 0 404 643 3 c578 3 646 5
685 20 69 28 99 55 129 116 l28 57 0 290 0 290 -26 56 c-28 59 -61 89 -131
117 -39 15 -106 17 -685 20 l-643 3 0 404 0 405 948 2 c1049 4 994 0 1064 70
60 60 70 109 75 369 6 261 -4 349 -46 424 -32 57 -83 89 -170 105 -66 12
-2926 12 -2988 -1z"/>
<path d="M15130 17916 c-105 -23 -152 -64 -185 -161 -14 -39 -19 -96 -22 -260
-6 -249 4 -344 44 -423 24 -50 35 -61 88 -87 l60 -30 578 -3 577 -3 0 -1627
c0 -1085 4 -1649 11 -1692 22 -137 90 -207 229 -236 114 -23 861 -16 938 10
81 26 137 83 162 163 20 64 20 93 20 1724 l0 1658 583 3 582 3 58 28 c38 19
66 41 81 65 48 74 51 100 51 387 0 237 -2 276 -19 323 -25 73 -66 116 -134
144 l-57 23 -1795 2 c-1387 1 -1807 -1 -1850 -11z"/>
<path d="M19570 14203 c-109 -20 -162 -60 -203 -151 -14 -31 -108 -336 -208
-677 -194 -663 -199 -685 -153 -736 41 -46 64 -49 404 -49 370 0 394 3 454 64
36 37 71 112 295 640 140 329 263 628 273 664 35 128 19 189 -60 225 -45 21
-61 22 -412 23 -201 1 -376 0 -390 -3z"/>
<path d="M17570 11904 c-679 -38 -1177 -223 -1541 -572 -374 -356 -581 -837
-640 -1484 -15 -171 -7 -624 16 -783 65 -472 222 -863 465 -1160 84 -103 252
-260 360 -338 367 -261 910 -407 1520 -407 664 0 1222 164 1605 473 444 358
695 888 756 1595 15 179 6 611 -16 767 -64 464 -199 817 -427 1118 -82 109
-252 277 -362 359 -305 228 -703 368 -1186 417 -107 11 -451 21 -550 15z m355
-974 c222 -32 411 -124 533 -258 111 -123 199 -301 250 -507 71 -282 88 -767
37 -1083 -82 -508 -284 -798 -635 -910 -122 -39 -181 -46 -360 -46 -179 0
-238 7 -360 46 -366 117 -580 442 -646 983 -20 168 -23 559 -5 715 37 320 120
565 253 741 129 171 330 282 575 318 82 12 275 12 358 1z"/>
<path d="M22340 11904 c-348 -23 -613 -84 -849 -195 -484 -228 -731 -619 -731
-1159 0 -268 71 -502 208 -686 189 -255 584 -500 1197 -743 289 -115 530 -227
622 -289 70 -47 103 -84 141 -156 25 -47 27 -60 27 -166 0 -106 -2 -120 -28
-172 -47 -97 -143 -159 -297 -195 -109 -24 -453 -24 -605 1 -306 50 -556 132
-822 272 -68 35 -133 64 -144 64 -39 0 -77 -30 -121 -97 -89 -135 -317 -503
-339 -544 -26 -53 -22 -112 12 -159 51 -69 314 -218 509 -288 289 -104 631
-177 1005 -214 199 -19 700 -16 855 5 448 63 745 188 977 410 181 174 281 355
334 609 18 82 22 137 22 268 0 324 -70 558 -230 768 -198 259 -541 458 -1263
730 -348 131 -483 198 -581 290 -105 96 -145 219 -119 361 38 209 196 305 526
318 320 13 638 -56 879 -192 211 -119 225 -122 285 -67 36 33 382 583 399 635
25 74 -22 141 -165 238 -271 182 -649 297 -1114 338 -127 11 -504 21 -590 15z"/>
<path d="M11375 11804 c-125 -17 -207 -69 -246 -156 l-24 -53 0 -2065 0 -2065
26 -56 c29 -61 70 -99 140 -126 40 -16 87 -18 494 -18 414 0 454 1 504 19 72
25 125 75 153 144 23 57 23 58 26 654 l3 596 497 5 c530 4 610 11 849 67 536
126 860 404 1013 868 97 297 117 720 49 1050 -122 596 -490 949 -1125 1077
-280 57 -289 58 -1349 60 -539 2 -993 1 -1010 -1z m1790 -998 c98 -27 166 -66
231 -130 107 -107 147 -229 147 -441 0 -151 -18 -238 -66 -329 -66 -124 -184
-208 -340 -240 -60 -13 -142 -16 -382 -16 l-305 0 0 591 0 591 328 -5 c265 -3
338 -7 387 -21z"/>
<path d="M25004 11800 c-78 -11 -139 -43 -172 -89 -50 -69 -57 -119 -57 -401
0 -215 3 -264 18 -312 21 -71 58 -115 117 -142 44 -20 60 -21 627 -24 l583 -3
2 -1672 c3 -1617 4 -1674 22 -1721 27 -71 91 -131 163 -153 52 -16 103 -18
503 -18 442 0 445 0 502 23 75 30 130 91 152 170 14 53 16 212 16 1715 l0
1656 583 3 582 3 57 27 c113 53 138 134 138 449 0 224 -9 298 -46 370 -27 53
-64 84 -132 108 -43 15 -210 16 -1827 17 -979 1 -1803 -2 -1831 -6z"/>
<path d="M29747 11799 c-134 -20 -209 -83 -237 -200 -12 -55 26 -2449 41
-2524 20 -102 70 -158 173 -192 43 -14 107 -17 410 -21 235 -2 383 0 425 8 84
14 164 53 196 94 59 77 55 16 82 1357 24 1141 24 1239 10 1290 -9 31 -27 71
-40 89 -30 46 -115 88 -202 100 -84 12 -776 11 -858 -1z"/>
<path d="M7286 10850 c-74 -23 -91 -63 -132 -327 l-26 -172 -282 -3 c-311 -3
-321 -5 -368 -70 -23 -33 -23 -34 -26 -396 -4 -514 -19 -492 317 -492 l214 0
-6 -37 c-3 -21 -18 -127 -33 -235 l-27 -198 -241 0 c-231 0 -244 -1 -286 -22
-88 -46 -85 -26 -88 -476 -3 -396 -3 -397 20 -441 38 -74 63 -81 268 -81 l176
0 -38 -242 c-22 -135 -36 -257 -33 -275 8 -44 63 -90 117 -98 24 -3 210 -5
413 -3 399 3 407 4 447 58 13 18 29 97 58 284 22 142 40 262 40 267 0 5 110 9
245 9 l246 0 -6 -32 c-45 -257 -72 -465 -64 -492 11 -41 46 -74 90 -86 43 -13
750 -13 803 -1 54 13 93 54 104 110 6 25 25 148 43 273 l34 227 307 3 306 3
27 25 c56 52 55 47 55 477 0 369 -1 401 -19 433 -36 69 -59 75 -303 78 -159 3
-218 7 -218 15 0 7 14 110 30 230 17 120 30 221 30 223 0 2 120 4 266 4 250 0
269 1 299 20 64 39 65 48 65 457 0 340 -1 371 -19 403 -35 67 -62 75 -273 78
-153 3 -188 6 -188 18 0 7 11 82 25 166 29 177 31 218 10 258 -33 65 -37 65
-485 65 -377 0 -408 -1 -434 -18 -42 -28 -61 -85 -91 -272 -14 -93 -29 -180
-32 -192 l-5 -23 -245 0 c-228 0 -244 1 -239 18 3 9 17 97 32 196 l28 178 -19
36 c-11 19 -33 45 -48 56 -28 20 -41 21 -420 23 -216 1 -405 -2 -421 -7z m932
-1346 c544 -218 542 -217 542 -303 0 -62 -21 -90 -106 -137 -35 -19 -66 -39
-68 -43 -3 -4 53 -65 125 -137 123 -123 129 -131 129 -169 0 -50 -13 -69 -109
-168 -88 -91 -114 -107 -172 -107 -41 0 -47 5 -172 128 -115 114 -130 125
-141 109 -6 -10 -28 -45 -49 -78 -43 -69 -87 -95 -145 -84 -67 12 -78 33 -271
520 -100 253 -186 470 -192 483 -35 85 23 181 109 182 21 0 222 -76 520 -196z"/>
<path d="M29885 8491 c-143 -14 -240 -56 -314 -136 -92 -100 -115 -210 -109
-520 4 -186 8 -229 25 -282 30 -89 67 -148 124 -192 110 -88 211 -104 610 -99
288 4 296 5 374 31 100 34 165 82 214 157 67 104 76 152 76 425 0 258 -6 298
-60 405 -28 56 -111 135 -168 160 -102 45 -151 52 -427 55 -146 2 -301 0 -345
-4z"/>
</g>
</svg>
